<svg width="1762" height="533" viewBox="0 0 1762 533" fill="none" xmlns="http://www.w3.org/2000/svg">
<path d="M1657.1 429.575C1635.56 429.575 1616.66 426.552 1600.41 420.506C1586.78 415.433 1573.68 409.562 1561.11 402.892C1556.65 400.525 1553.94 395.843 1553.94 390.791V365.747C1553.94 354.008 1567.75 347.209 1577.7 353.441C1579.94 354.849 1582.23 356.232 1584.54 357.59C1595.88 364.014 1607.41 369.304 1619.12 373.461C1631.21 377.24 1642.74 379.129 1653.7 379.129C1661.25 379.129 1668.43 377.995 1675.23 375.728C1682.04 373.461 1687.7 369.871 1692.24 364.959C1696.77 360.046 1699.04 353.622 1699.04 345.687C1699.04 336.24 1695.64 328.494 1688.84 322.448C1682.04 316.402 1673.16 311.111 1662.2 306.577C1651.62 301.665 1640.09 296.941 1627.62 292.407C1615.53 287.494 1604 281.826 1593.05 275.402C1582.47 268.6 1573.77 260.098 1566.97 249.896C1560.17 239.315 1556.77 226.467 1556.77 211.352C1556.77 195.104 1560.74 181.122 1568.67 169.408C1576.61 157.694 1587.94 148.814 1602.68 142.768C1617.42 136.344 1634.61 133.132 1654.26 133.132C1664.84 133.132 1674.86 133.888 1684.3 135.399C1694.13 136.911 1703.57 139.367 1712.64 142.768C1719.36 145.285 1725.96 148.32 1732.47 151.872C1736.76 154.213 1739.28 158.787 1739.28 163.672V191.228C1739.28 202.67 1726.1 209.539 1716.12 203.94C1714.79 203.191 1713.44 202.45 1712.08 201.716C1702.63 196.426 1692.99 192.27 1683.17 189.247C1673.72 185.846 1664.09 184.145 1654.26 184.145C1642.93 184.145 1634.05 186.601 1627.62 191.514C1621.58 196.426 1618.55 202.283 1618.55 209.085C1618.55 216.643 1621.95 223.255 1628.76 228.924C1635.56 234.214 1644.44 239.126 1655.4 243.661C1666.35 247.817 1677.88 252.541 1689.97 257.831C1702.06 263.121 1713.59 269.356 1724.55 276.536C1735.51 283.715 1744.39 292.596 1751.19 303.176C1757.99 313.757 1761.39 326.982 1761.39 342.853C1761.39 359.479 1757.04 374.406 1748.35 387.631C1740.04 400.857 1727.95 411.248 1712.08 418.806C1696.58 425.986 1678.26 429.575 1657.1 429.575Z" fill="white"/>
<path d="M1261.91 524.8C1254.18 524.8 1247.91 518.532 1247.91 510.8V163.993C1247.91 153.133 1259.74 146.408 1269.07 151.963L1308.95 175.702C1314.91 179.251 1322.53 177.848 1327.29 172.803C1337.02 162.503 1347.78 153.814 1359.57 146.736C1374.69 137.289 1393.58 132.565 1416.25 132.565C1440.82 132.565 1463.3 138.8 1483.7 151.27C1504.11 163.362 1520.36 180.555 1532.45 202.85C1544.92 224.767 1551.16 250.84 1551.16 281.07C1551.16 311.3 1544.73 337.563 1531.88 359.857C1519.41 382.152 1502.98 399.345 1482.57 411.437C1462.17 423.529 1440.06 429.575 1416.25 429.575C1393.58 429.575 1373.93 425.23 1357.31 416.539C1352.9 414.136 1348.67 411.507 1344.61 408.653C1333.62 400.932 1314.79 407.998 1314.79 421.425V510.8C1314.79 518.532 1308.53 524.8 1300.79 524.8H1261.91ZM1399.82 373.461C1416.06 373.461 1430.42 369.682 1442.89 362.125C1455.74 354.567 1465.94 343.798 1473.5 329.816C1481.44 315.835 1485.4 299.586 1485.4 281.07C1485.4 264.444 1481.82 249.329 1474.64 235.725C1467.46 221.744 1457.44 210.786 1444.59 202.85C1432.12 194.537 1417.01 190.38 1399.25 190.38C1383.76 190.38 1369.4 194.348 1356.17 202.283C1342.95 209.841 1332.37 220.61 1324.43 234.592C1316.87 248.195 1313.09 263.877 1313.09 281.637C1313.09 299.397 1317.06 315.268 1325 329.249C1333.31 342.853 1344.08 353.622 1357.31 361.558C1370.53 369.493 1384.7 373.461 1399.82 373.461Z" fill="white"/>
<path d="M1151.37 423.907C1143.64 423.907 1137.37 417.639 1137.37 409.907V153.367C1137.37 145.635 1143.64 139.367 1151.37 139.367H1189.69C1197.42 139.367 1203.69 145.635 1203.69 153.367V409.907C1203.69 417.639 1197.42 423.907 1189.69 423.907H1151.37ZM1169.68 94.5888C1158.34 94.5888 1148.33 90.81 1139.64 83.2525C1131.32 75.695 1127.17 65.8702 1127.17 53.7782C1127.17 41.3083 1131.13 31.2946 1139.07 23.7371C1147.38 16.1796 1157.58 12.4009 1169.68 12.4009C1182.15 12.4009 1192.54 16.1796 1200.85 23.7371C1209.16 30.9168 1213.32 40.9304 1213.32 53.7782C1213.32 65.8702 1209.16 75.695 1200.85 83.2525C1192.54 90.81 1182.15 94.5888 1169.68 94.5888Z" fill="white"/>
<path d="M1039.05 423.907C1031.31 423.907 1025.05 417.639 1025.05 409.907V23C1025.05 15.268 1031.31 9 1039.05 9H1077.93C1085.66 9 1091.93 15.268 1091.93 23V409.907C1091.93 417.639 1085.66 423.907 1077.93 423.907H1039.05Z" fill="white"/>
<path d="M857.62 431.843C828.901 431.843 802.072 426.741 777.132 416.539C752.192 405.958 730.464 391.41 711.949 372.894C693.433 354 678.884 332.084 668.304 307.144C658.101 281.826 653 254.43 653 224.956C653 195.859 658.101 168.841 668.304 143.902C678.507 118.584 692.866 96.4782 711.382 77.5844C730.276 58.6906 752.192 43.9535 777.132 33.373C802.45 22.7925 830.035 17.5022 859.887 17.5022C886.338 17.5022 909.2 21.2809 928.471 28.8385C945.845 35.1866 961.742 43.4551 976.162 53.6438C979.73 56.1652 981.752 60.3105 981.752 64.6798V95.0577C981.752 107.802 965.207 114.732 954.693 107.528C947.751 102.771 940.333 98.4582 932.439 94.5888C913.167 84.764 889.361 79.8516 861.02 79.8516C833.813 79.8516 809.818 86.4644 789.035 99.6901C768.252 112.538 752.003 129.92 740.289 151.837C728.953 173.754 723.285 197.938 723.285 224.389C723.285 251.218 728.953 275.591 740.289 297.508C752.003 319.425 768.252 336.807 789.035 349.655C809.818 362.503 833.813 368.926 861.02 368.926C879.158 368.926 895.407 366.47 909.766 361.558C924.126 356.268 937.729 349.277 950.577 340.586C955.261 337.417 959.92 334.098 964.554 330.628C974.193 323.409 988.553 330.01 988.553 342.052V377.567C988.553 381.783 986.668 385.793 983.326 388.362C966.656 401.173 948.749 411.51 929.605 419.373C908.822 427.686 884.827 431.843 857.62 431.843Z" fill="white"/>
<rect width="533" height="533" rx="68" fill="url(#paint0_linear_3_63)"/>
<path d="M112 174.668V356.249C112 359.425 113.675 362.367 116.406 363.988L280.123 461.165C283.051 462.903 286.708 462.84 289.574 461.002L417.858 378.753C420.439 377.098 422 374.243 422 371.177V302.861C422 295.939 414.513 291.608 408.513 295.059L354.361 326.204C351.569 327.81 349.848 330.785 349.848 334.006V342.632V396.841C349.848 398.451 349.416 400.031 348.598 401.417L347.513 403.254C346.155 405.555 343.843 407.133 341.205 407.561L339.567 407.827C337.525 408.158 335.431 407.776 333.638 406.745L191.764 325.148C188.972 323.542 187.251 320.567 187.251 317.347V219.062C187.251 215.841 188.972 212.866 191.764 211.261L277.698 161.837C280.49 160.231 282.211 157.256 282.211 154.035V85.6864C282.211 78.7365 274.669 74.4091 268.669 77.9166L116.458 166.898C113.697 168.512 112 171.47 112 174.668Z" fill="white"/>
<path d="M400.4 267.2V252.44H407.88C408.48 252.44 409.133 252.613 409.84 252.96C410.547 253.293 411.147 253.813 411.64 254.52C412.147 255.213 412.4 256.093 412.4 257.16C412.4 258.24 412.14 259.16 411.62 259.92C411.1 260.667 410.467 261.233 409.72 261.62C408.987 262.007 408.293 262.2 407.64 262.2H402.24V259.8H406.64C407.08 259.8 407.553 259.58 408.06 259.14C408.58 258.7 408.84 258.04 408.84 257.16C408.84 256.253 408.58 255.64 408.06 255.32C407.553 255 407.107 254.84 406.72 254.84H403.64V267.2H400.4ZM409.32 260.24L413 267.2H409.44L405.84 260.24H409.32ZM406 276C403.787 276 401.713 275.587 399.78 274.76C397.847 273.933 396.147 272.787 394.68 271.32C393.213 269.853 392.067 268.153 391.24 266.22C390.413 264.287 390 262.213 390 260C390 257.787 390.413 255.713 391.24 253.78C392.067 251.847 393.213 250.147 394.68 248.68C396.147 247.213 397.847 246.067 399.78 245.24C401.713 244.413 403.787 244 406 244C408.213 244 410.287 244.413 412.22 245.24C414.153 246.067 415.853 247.213 417.32 248.68C418.787 250.147 419.933 251.847 420.76 253.78C421.587 255.713 422 257.787 422 260C422 262.213 421.587 264.287 420.76 266.22C419.933 268.153 418.787 269.853 417.32 271.32C415.853 272.787 414.153 273.933 412.22 274.76C410.287 275.587 408.213 276 406 276ZM406 272.16C408.24 272.16 410.28 271.613 412.12 270.52C413.96 269.427 415.427 267.96 416.52 266.12C417.613 264.28 418.16 262.24 418.16 260C418.16 257.76 417.613 255.72 416.52 253.88C415.427 252.04 413.96 250.573 412.12 249.48C410.28 248.387 408.24 247.84 406 247.84C403.76 247.84 401.72 248.387 399.88 249.48C398.04 250.573 396.573 252.04 395.48 253.88C394.387 255.72 393.84 257.76 393.84 260C393.84 262.24 394.387 264.28 395.48 266.12C396.573 267.96 398.04 269.427 399.88 270.52C401.72 271.613 403.76 272.16 406 272.16Z" fill="white"/>
<defs>
<linearGradient id="paint0_linear_3_63" x1="50.6085" y1="23.4592" x2="521.391" y2="289.541" gradientUnits="userSpaceOnUse">
<stop stop-color="#0F032D"/>
<stop offset="0.33" stop-color="#4E2BCC"/>
<stop offset="0.711626" stop-color="#905BF4"/>
<stop offset="1" stop-color="#EFEFEF"/>
</linearGradient>
</defs>
</svg>
